<?xml version="1.0" encoding="utf-8"?>
<!-- Generator: Adobe Illustrator 17.0.0, SVG Export Plug-In . SVG Version: 6.00 Build 0)  -->
<!DOCTYPE svg PUBLIC "-//W3C//DTD SVG 1.1//EN" "http://www.w3.org/Graphics/SVG/1.1/DTD/svg11.dtd">
<svg version="1.1" id="Layer_1" xmlns="http://www.w3.org/2000/svg" xmlns:xlink="http://www.w3.org/1999/xlink" x="0px" y="0px"
	 width="216px" height="57.6px" viewBox="0 0 216 57.6" enable-background="new 0 0 216 57.6" xml:space="preserve">
<g>
	<path fill="#231F20" d="M30.438,30.183c-0.649-4.185-3.319-6.422-7.576-6.422c-6.566,0-8.731,6.639-8.731,12.123
		c0,5.34,2.092,11.762,8.515,11.762c4.762,0,7.504-3.031,8.153-7.577h9.886c-1.299,9.886-8.154,15.298-17.967,15.298
		c-11.256,0-18.833-7.937-18.833-19.122c0-11.617,6.927-20.204,19.049-20.204c8.803,0,16.884,4.619,17.534,14.143H30.438z"/>
	<rect x="44.725" y="17.051" fill="#231F20" width="10.246" height="37.305"/>
	<path fill="#231F20" d="M60.454,17.051h9.669v5.051h0.144c2.669-3.824,6.566-6.061,11.4-6.061c4.69,0,8.876,1.732,10.896,6.206
		c2.165-3.247,6.061-6.206,11.256-6.206c7.938,0,13.638,3.681,13.638,13.35v24.966h-10.246V33.214c0-4.978-0.433-9.092-6.278-9.092
		c-5.772,0-6.855,4.763-6.855,9.452v20.781H83.833V33.43c0-4.328,0.289-9.308-6.205-9.308c-2.021,0-6.927,1.299-6.927,8.586v21.647
		H60.454V17.051z"/>
	<g>
		<path fill="#231F20" d="M129.885,20.371c-0.309-1.202-1.086-2.082-2.61-2.082c-2.243,0-3.183,1.979-3.183,3.988
			c0,2.01,0.939,3.989,3.183,3.989c1.628,0,2.522-1.218,2.669-2.742h1.789c-0.146,2.507-1.922,4.237-4.458,4.237
			c-3.138,0-5.015-2.492-5.015-5.484c0-2.991,1.877-5.483,5.015-5.483c2.36,0.015,4.224,1.319,4.442,3.577H129.885z"/>
		<path fill="#231F20" d="M142.712,22.277c0,2.992-1.877,5.484-5.015,5.484c-3.139,0-5.016-2.492-5.016-5.484
			c0-2.991,1.877-5.483,5.016-5.483C140.835,16.794,142.712,19.286,142.712,22.277z M134.515,22.277c0,2.01,0.938,3.989,3.183,3.989
			c2.243,0,3.182-1.979,3.182-3.989c0-2.009-0.938-3.988-3.182-3.988C135.453,18.289,134.515,20.268,134.515,22.277z"/>
		<path fill="#231F20" d="M143.852,17.043h2.581l2.889,8.197h0.029l2.815-8.197h2.551v10.47h-1.744v-8.08h-0.029l-2.903,8.08h-1.511
			l-2.903-8.08h-0.029v8.08h-1.745V17.043z"/>
		<path fill="#231F20" d="M163.482,20.371c-0.309-1.202-1.086-2.082-2.61-2.082c-2.243,0-3.183,1.979-3.183,3.988
			c0,2.01,0.939,3.989,3.183,3.989c1.628,0,2.522-1.218,2.669-2.742h1.789c-0.146,2.507-1.922,4.237-4.458,4.237
			c-3.138,0-5.015-2.492-5.015-5.484c0-2.991,1.877-5.483,5.015-5.483c2.36,0.015,4.224,1.319,4.442,3.577H163.482z"/>
		<path fill="#231F20" d="M169.373,17.043h1.951l4.032,10.47h-1.965l-0.982-2.771h-4.179l-0.982,2.771h-1.893L169.373,17.043z
			 M168.729,23.349h3.197l-1.57-4.502h-0.014h-0.029L168.729,23.349z"/>
		<path fill="#231F20" d="M177.273,24.022c0,1.613,1.188,2.244,2.654,2.244c1.613,0,2.215-0.792,2.215-1.584
			c0-0.807-0.44-1.129-0.865-1.29c-0.733-0.279-1.687-0.47-3.123-0.865c-1.789-0.484-2.317-1.569-2.317-2.654
			c0-2.097,1.936-3.079,3.827-3.079c2.186,0,4.018,1.158,4.018,3.343h-1.832c-0.089-1.349-0.998-1.848-2.259-1.848
			c-0.851,0-1.921,0.308-1.921,1.364c0,0.732,0.498,1.144,1.246,1.349c0.162,0.044,2.479,0.646,3.021,0.807
			c1.378,0.41,2.037,1.584,2.037,2.669c0,2.346-2.082,3.284-4.164,3.284c-2.391,0-4.326-1.144-4.369-3.739H177.273z"/>
		<path fill="#231F20" d="M184.485,17.043h8.475v1.584h-3.328v8.886h-1.834v-8.886h-3.313V17.043z"/>
		<path fill="#231F20" d="M122.816,30.488h1.833v10.47h-1.833V30.488z"/>
		<path fill="#231F20" d="M126.203,30.488h1.936l4.78,7.713h0.029v-7.713h1.745v10.47h-1.936l-4.766-7.698h-0.045v7.698h-1.744
			V30.488z"/>
		<path fill="#231F20" d="M135.672,30.488h8.476v1.584h-3.329v8.886h-1.832v-8.886h-3.314V30.488z"/>
		<path fill="#231F20" d="M145.2,30.488h7.537v1.584h-5.704v2.741h5.279v1.496h-5.279v3.064h5.807v1.584h-7.64V30.488z"/>
		<path fill="#231F20" d="M153.834,30.488h5c2.288,0,3.461,1.056,3.461,2.83c0,2.009-1.393,2.523-1.73,2.64v0.029
			c0.631,0.088,1.555,0.557,1.555,2.214c0,1.217,0.176,2.332,0.572,2.757h-1.965c-0.279-0.454-0.279-1.026-0.279-1.54
			c0-1.921-0.396-2.771-2.082-2.771h-2.698v4.312h-1.833V30.488z M155.667,35.254h3.007c1.158,0,1.788-0.572,1.788-1.672
			c0-1.334-0.864-1.599-1.817-1.599h-2.977V35.254z"/>
		<path fill="#231F20" d="M167.027,30.488h1.951l4.032,10.47h-1.965l-0.982-2.771h-4.179l-0.982,2.771h-1.893L167.027,30.488z
			 M166.383,36.794h3.197l-1.57-4.502h-0.014h-0.029L166.383,36.794z"/>
		<path fill="#231F20" d="M180.311,33.816c-0.309-1.202-1.086-2.082-2.61-2.082c-2.243,0-3.183,1.979-3.183,3.988
			c0,2.01,0.939,3.989,3.183,3.989c1.628,0,2.523-1.218,2.669-2.742h1.789c-0.146,2.507-1.922,4.237-4.458,4.237
			c-3.138,0-5.015-2.492-5.015-5.484c0-2.991,1.877-5.483,5.015-5.483c2.36,0.015,4.224,1.319,4.442,3.577H180.311z"/>
		<path fill="#231F20" d="M182.491,30.488h8.476v1.584h-3.328v8.886h-1.834v-8.886h-3.314V30.488z"/>
		<path fill="#231F20" d="M192.107,30.488h1.833v10.47h-1.833V30.488z"/>
		<path fill="#231F20" d="M195.142,30.488h1.906l2.625,8.285h0.029l2.683-8.285h1.863l-3.578,10.47h-2.039L195.142,30.488z"/>
		<path fill="#231F20" d="M205.314,30.488h7.537v1.584h-5.703v2.741h5.279v1.496h-5.279v3.064h5.807v1.584h-7.641V30.488z"/>
		<path fill="#231F20" d="M122.787,43.933h2.581l2.889,8.197h0.029l2.815-8.197h2.551v10.47h-1.744v-8.08h-0.029l-2.903,8.08h-1.511
			l-2.903-8.08h-0.029v8.08h-1.745V43.933z"/>
		<path fill="#231F20" d="M134.852,43.933h7.537v1.584h-5.704v2.741h5.279v1.496h-5.279v3.064h5.808v1.584h-7.641V43.933z"/>
		<path fill="#231F20" d="M143.485,43.933h4.341c3.226,0,4.619,2.346,4.619,5.234c0,2.889-1.393,5.235-4.619,5.235h-4.341V43.933z
			 M145.318,52.906h1.804c2.874,0,3.49-1.642,3.49-3.739c0-2.097-0.616-3.739-3.49-3.739h-1.804V52.906z"/>
		<path fill="#231F20" d="M153.541,43.933h1.833v10.47h-1.833V43.933z"/>
		<path fill="#231F20" d="M160.314,43.933h1.95l4.032,10.47h-1.965l-0.982-2.772h-4.179l-0.982,2.772h-1.892L160.314,43.933z
			 M159.67,50.238h3.196l-1.569-4.502h-0.015h-0.029L159.67,50.238z"/>
	</g>
	<g>
		<path fill="#231F20" d="M166.404,43.922c1,0,1.893,0.72,1.893,1.838c0,1.124-0.893,1.849-1.893,1.849
			c-1.001,0-1.893-0.725-1.893-1.849C164.512,44.642,165.403,43.922,166.404,43.922z M166.404,47.214c0.764,0,1.39-0.611,1.39-1.454
			c0-0.838-0.626-1.444-1.39-1.444c-0.773,0-1.391,0.606-1.391,1.444C165.014,46.603,165.631,47.214,166.404,47.214z M165.67,44.725
			h0.778c0.518,0,0.809,0.163,0.809,0.611c0,0.38-0.237,0.527-0.542,0.552l0.552,0.902h-0.429l-0.503-0.882h-0.257v0.882h-0.408
			V44.725z M166.078,45.588h0.365c0.232,0,0.404-0.035,0.404-0.286c0-0.222-0.236-0.257-0.424-0.257h-0.346V45.588z"/>
	</g>
	<circle fill="#231F20" cx="49.846" cy="8.08" r="5.411"/>
</g>
</svg>
