<?xml version="1.0" encoding="utf-8"?>
<!-- Generator: Adobe Illustrator 17.0.0, SVG Export Plug-In . SVG Version: 6.00 Build 0)  -->
<!DOCTYPE svg PUBLIC "-//W3C//DTD SVG 1.1//EN" "http://www.w3.org/Graphics/SVG/1.1/DTD/svg11.dtd">
<svg version="1.1" id="Layer_1" xmlns="http://www.w3.org/2000/svg" xmlns:xlink="http://www.w3.org/1999/xlink" x="0px" y="0px"
	 width="106.5px" height="80.833px" viewBox="0 0 106.5 80.833" enable-background="new 0 0 106.5 80.833" xml:space="preserve">
<path fill="#FFFFFF" d="M19.701,51.004c2.319,9.396,5.267,13.501,15.11,17.805c9.844,4.304,14.519,8.998,18.38,8.998
	s8.239-4.112,18.083-8.416c9.844-4.304,7.218-5.613,9.537-15.009l-27.62,13.425L19.701,51.004z M100.746,26.488L59.121,3.177
	c-3.262-1.826-8.598-1.826-11.859,0L5.637,26.488c-3.261,1.826-3.261,4.815,0,6.641l41.625,23.308c3.262,1.827,8.598,1.827,11.859,0
	l26.908-15.067l-29.179-6.835c-1.126,0.279-2.362,0.435-3.659,0.435c-5.256,0-9.518-2.535-9.518-5.662
	c0-3.127,4.262-5.663,9.518-5.663c4.081,0,7.552,1.532,8.904,3.678l30.906,10.143l7.744-4.337
	C104.007,31.302,104.007,28.314,100.746,26.488z M88.024,70.663c-0.318,1.923,6.417,5.083,7.059-0.542
	c2.893-25.357-2.081-32.656-2.081-32.656l-6.973,3.904C86.029,41.369,91.941,46.996,88.024,70.663z"/>
</svg>
