<?xml version="1.0" encoding="utf-8"?>
<!-- Generator: Adobe Illustrator 17.0.0, SVG Export Plug-In . SVG Version: 6.00 Build 0)  -->
<!DOCTYPE svg PUBLIC "-//W3C//DTD SVG 1.1//EN" "http://www.w3.org/Graphics/SVG/1.1/DTD/svg11.dtd">
<svg version="1.1" id="Layer_1" xmlns="http://www.w3.org/2000/svg" xmlns:xlink="http://www.w3.org/1999/xlink" x="0px" y="0px"
	 width="529px" height="181px" viewBox="0 0 529 181" enable-background="new 0 0 529 181" xml:space="preserve">
<path fill="#006BA4" d="M19.137,51.947l-1.198-20.633l-9.584-1.598V24.26l20.633,0.398l20.632-0.398v5.457l-9.717,1.598
	l-1.198,20.633v14.908h44.992l0.02-31.566l-1.213-20.633l-9.702-1.598V7.602L93.5,8l20.565-0.398v5.45l-9.717,1.596l-1.065,20.605
	l0.247,65.449l1.065,20.605l9.717,1.728v5.318l-20.632-0.266l-20.633,0.399v-5.324l9.702-1.731l1.213-20.633V76.973l-45.126-0.134
	l-0.133,23.898l1.198,20.581l9.717,1.726v5.31l-20.632-0.266l-20.633,0.399v-5.324l9.584-1.731l1.198-20.633V51.947z"/>
<path fill="#006BA4" d="M181.01,110.251c-5.148,8.875-10.472,14.465-15.974,16.772c-5.503,2.308-11.094,3.462-16.772,3.462
	c-7.633,0-13.823-2.153-18.569-6.457c-4.748-4.303-7.122-9.471-7.122-15.508c0-9.76,4.992-17.414,14.975-22.961
	c9.984-5.545,23.848-8.32,41.598-8.32v-8.305c0-5.267-1.31-8.794-3.927-10.581c-2.619-1.784-6.901-2.679-12.846-2.679
	c-6.036,0-11.004,0.718-14.909,2.15c-2.219,0.807-4.039,1.524-5.458,2.149c-0.266,0.092-0.578,0.225-0.932,0.404v7.793l-5.235,1.747
	l-7.853-17.791l10.911-3.417c7.178-2.367,16.261-3.552,27.249-3.552c17.014,0,26.739,5.06,29.177,15.176
	c2.438,10.116,3.656,28.752,3.656,55.907v2.529l8.12,4.127v5.591l-11.182-0.134l-4.659-0.132l-8.785,0.398
	c-0.179-0.444-0.356-1.042-0.533-1.797c-0.179-0.753-0.266-1.93-0.266-3.527c0-1.774-0.046-3.748-0.133-5.924
	C181.453,115.198,181.276,112.826,181.01,110.251z M179.146,86.023h-5.439c-4.775,0-9.128,0.556-13.064,1.664
	c-3.935,1.11-7.317,2.685-10.146,4.727c-5.572,3.46-8.357,8.075-8.357,13.843c0,2.662,1.281,5.125,3.846,7.388
	c2.564,2.264,5.969,3.395,10.214,3.395c7.072,0,12.664-2.996,16.776-8.985C177.089,102.065,179.146,94.723,179.146,86.023z"/>
<path fill="#006BA4" d="M263.702,52.303v-5.325l13.845,0.399l14.109-0.399v5.191l-4.792,1.732
	c-5.503,12.691-10.738,25.69-15.705,39.002l-14.243,39.003c-4.172,12.067-9.967,21.837-17.582,28.095
	c-7.422,6.1-26.844,10.233-26.844,10.233l-0.156-12.067l3.08-0.68c6.017-0.426,16.209-4.13,21.267-9.675
	c5.058-5.547,6.986-9.431,6.986-9.431l0,0l-2.86-9.938c-4.26-13.045-8.808-25.69-13.644-37.938
	c-4.838-12.246-9.963-24.403-15.374-36.473l-6.39-1.731v-5.325l17.704,0.399l17.837-0.399v5.184l-7.587,1.729
	c3.099,10.898,6.333,21.134,9.701,30.704l10.1,30.836l9.63-30.644c2.658-9.496,5.36-19.792,8.107-30.886L263.702,52.303z"/>
<path fill="#006BA4" d="M351.814,115.176c-3.461,5.279-7.3,9.104-11.514,11.479c-4.216,2.375-8.632,3.562-13.245,3.562
	c-10.206,0-18.437-3.565-24.692-10.699c-6.257-7.132-9.385-16.412-9.385-27.844c0-13.731,4.127-24.917,12.379-33.557
	c8.253-8.641,18.946-12.961,32.081-12.961c2.662,0,5.013,0.224,7.056,0.666l5.989,0.799v0.799l-0.399-15.974
	c0-2.307-0.09-4.061-0.266-5.258c-0.179-1.198-0.445-2.329-0.799-3.395l-9.851-1.863v-5.458l24.227-3.993h6.789l-0.933,11.714
	l-0.532,9.717v65.492c0,2.929,0.066,5.77,0.2,8.52c0.133,2.751,0.243,4.925,0.332,6.522c0,3.373,0.4,6.036,1.199,7.986
	c0.798,0,1.396,0.046,1.797,0.134c0.4,0.09,1.175,0.266,2.329,0.532l4.26,1.065v5.324l-13.444-0.399l-13.578,0.399V115.176z
	 M350.75,85.557V59.144c-0.889-0.622-2.552-1.356-4.992-2.2c-2.441-0.846-5.747-1.27-9.917-1.27c-7.81,0-13.643,2.536-17.505,7.604
	c-3.859,5.071-5.79,12.541-5.79,22.412c0,9.693,1.73,17.342,5.191,22.945c3.461,5.603,8.563,8.405,15.308,8.405
	c6.124,0,10.603-2.733,13.445-8.204C349.329,103.366,350.75,95.606,350.75,85.557z"/>
<path fill="#006BA4" d="M389.427,20.932v-5.458l24.228-3.993h6.922l-1.465,11.701v9.705v64.887c0,3.104,0.042,6.004,0.129,8.708
	c0.088,2.704,0.304,5.741,0.649,9.108c0.346,3.369,0.603,5.274,0.778,5.718l8.161,1.728v5.318l-18.902-0.266l-19.168,0.399v-5.324
	l8.492-1.731c0.183-0.176,0.387-0.931,0.615-2.263c0.229-1.331,0.344-3.016,0.344-5.059c0.116-2.217,0.234-4.769,0.353-7.653
	c0.118-2.883,0.179-5.744,0.179-8.586v-50.45c0-2.13-0.066-4.526-0.199-7.188c-0.134-2.662-0.246-5.59-0.333-8.785
	c0-1.951-0.09-3.682-0.267-5.191c-0.179-1.508-0.4-2.662-0.666-3.461L389.427,20.932z"/>
<path fill="#006BA4" d="M515.369,107.893c-1.863,2.65-4.039,5.167-6.522,7.55c-2.485,2.384-5.503,4.724-9.052,7.021
	c-7.012,4.505-14.465,6.755-22.363,6.755c-12.778,0-22.808-3.675-30.084-11.029c-7.277-7.355-10.915-17.545-10.915-30.57
	c0-11.96,4.304-22.193,12.912-30.7c8.607-8.507,18.989-12.761,31.149-12.761c10.027,0,18.124,2.995,24.293,8.986
	c6.166,5.989,9.252,13.644,9.252,22.962v4.659h-57.106c0,11.405,2.062,20.114,6.19,26.125c4.127,6.012,10.626,9.017,19.501,9.017
	c6.123,0,11.559-1.625,16.307-4.878c4.746-3.251,8.273-6.149,10.583-8.7L515.369,107.893z M457.465,72.91l36.873-1.729v-1.731
	c0-5.324-1.244-9.405-3.728-12.246c-2.485-2.839-6.257-4.26-11.315-4.26c-6.655,0-12.113,2.485-16.372,7.454
	C460.438,63.593,458.617,67.765,457.465,72.91z"/>
</svg>
