<?xml version="1.0" encoding="utf-8"?>
<!-- Generator: Adobe Illustrator 17.0.0, SVG Export Plug-In . SVG Version: 6.00 Build 0)  -->
<!DOCTYPE svg PUBLIC "-//W3C//DTD SVG 1.1//EN" "http://www.w3.org/Graphics/SVG/1.1/DTD/svg11.dtd">
<svg version="1.1" id="Layer_1" xmlns="http://www.w3.org/2000/svg" xmlns:xlink="http://www.w3.org/1999/xlink" x="0px" y="0px"
	 width="93.833px" height="93.833px" viewBox="0 0 93.833 93.833" enable-background="new 0 0 93.833 93.833" xml:space="preserve">
<path fill="#FFFFFF" d="M23.283,31.485c1.004,0,1.974,0.152,2.887,0.434c3.448-3.864,7.271-7.379,11.411-10.5
	c-0.173-0.731-0.275-1.489-0.275-2.274c0-1.084,0.184-2.125,0.51-3.1c-4.637-3.328-9.682-6.12-15.047-8.279
	c-5.031,3.109-9.418,7.162-12.914,11.912c2.596,4.596,5.682,8.883,9.189,12.784C20.327,31.842,21.762,31.485,23.283,31.485z
	 M13.495,41.272c0-1.374,0.287-2.682,0.798-3.868c-3.142-3.448-5.986-7.17-8.479-11.135c-3.126,6.211-4.897,13.22-4.897,20.647
	c0,8.601,2.366,16.647,6.476,23.533c1.468-8.277,4.254-16.096,8.103-23.268C14.245,45.538,13.495,43.495,13.495,41.272z
	 M47.092,9.358c2.585,0,4.929,1.009,6.678,2.646c5.106-2.197,10.484-3.881,16.078-4.958c-6.753-3.891-14.579-6.129-22.933-6.129
	c-5.694,0-11.145,1.043-16.179,2.936c3.996,1.972,7.803,4.276,11.385,6.873C43.58,9.862,45.276,9.358,47.092,9.358z M61.728,55.454
	c0.609-1.267,1.474-2.389,2.543-3.281c-2.888-8.891-7.465-17.021-13.359-24.016c-1.173,0.498-2.464,0.774-3.82,0.774
	c-2.123,0-4.082-0.684-5.686-1.832c-3.547,2.696-6.83,5.719-9.815,9.018c0.932,1.497,1.478,3.261,1.478,5.154
	c0,1.023-0.158,2.007-0.448,2.933C41.207,49.941,51.086,53.872,61.728,55.454z M74.423,68.665c0.135,1.853,0.206,3.723,0.206,5.609
	c0,3.321-0.212,6.592-0.612,9.805c7.799-5.698,13.74-13.787,16.734-23.193c-3.547,0.858-7.188,1.471-10.902,1.828
	C78.975,65.392,76.983,67.559,74.423,68.665z M59.434,62.032c-11.353-1.881-21.883-6.213-31.046-12.421
	c-1.487,0.912-3.232,1.449-5.105,1.449c-0.688,0-1.358-0.073-2.007-0.208c-4.387,8.317-7.191,17.593-7.996,27.428
	c4.38,4.696,9.724,8.479,15.727,11.019C36.46,77.838,46.88,68.357,59.434,62.032z M77.796,12.822
	c-7.371,0.711-14.412,2.561-20.967,5.342c0.035,0.323,0.051,0.649,0.051,0.98c0,1.545-0.368,3.001-1.005,4.301
	c6.548,7.688,11.635,16.648,14.846,26.455c3.979,0.071,7.382,2.509,8.845,5.971c4.428-0.449,8.74-1.296,12.894-2.518
	c0.295-2.104,0.458-4.252,0.458-6.439C92.917,33.396,87.083,21.238,77.796,12.822z M64.359,67.261
	c-11.72,5.49-21.519,13.945-28.616,24.282c3.577,0.893,7.318,1.374,11.173,1.374c6.939,0,13.514-1.546,19.413-4.297
	c0.948-4.637,1.45-9.433,1.45-14.346c0-1.775-0.08-3.532-0.213-5.274C66.383,68.622,65.299,68.029,64.359,67.261z"/>
</svg>
