<svg width="685" height="138" viewBox="0 0 685 138" fill="none" xmlns="http://www.w3.org/2000/svg">
<path d="M214.648 36.2305C214.648 40.1914 214.168 43.8008 213.207 47.0586C212.27 50.293 210.793 53.082 208.777 55.4258C206.762 57.7695 204.172 59.5742 201.008 60.8398C197.844 62.082 194.059 62.7031 189.652 62.7031C185.34 62.7031 181.602 62.082 178.438 60.8398C175.297 59.5742 172.707 57.7812 170.668 55.4609C168.629 53.1172 167.117 50.3164 166.133 47.0586C165.148 43.8008 164.656 40.168 164.656 36.1602C164.656 30.8164 165.535 26.1758 167.293 22.2383C169.074 18.2773 171.816 15.2187 175.52 13.0625C179.223 10.8828 183.957 9.79297 189.723 9.79297C195.582 9.79297 200.34 10.8828 203.996 13.0625C207.676 15.2422 210.371 18.3125 212.082 22.2734C213.793 26.2344 214.648 30.8867 214.648 36.2305ZM179.281 36.2305C179.281 39.3242 179.633 41.9844 180.336 44.2109C181.039 46.4375 182.152 48.1484 183.676 49.3438C185.199 50.5391 187.191 51.1367 189.652 51.1367C192.207 51.1367 194.234 50.5391 195.734 49.3438C197.258 48.1484 198.348 46.4375 199.004 44.2109C199.684 41.9844 200.023 39.3242 200.023 36.2305C200.023 31.5898 199.25 27.9219 197.703 25.2266C196.156 22.5312 193.496 21.1836 189.723 21.1836C187.215 21.1836 185.188 21.793 183.641 23.0117C182.117 24.2305 181.004 25.9648 180.301 28.2148C179.621 30.4648 179.281 33.1367 179.281 36.2305ZM271.742 21.4648C276.289 21.4648 279.758 22.625 282.148 24.9453C284.562 27.2656 285.77 30.9805 285.77 36.0898V62H272.023V40.3438C272.023 37.3203 271.613 35.2227 270.793 34.0508C269.996 32.8555 268.801 32.2578 267.207 32.2578C264.98 32.2578 263.434 33.2305 262.566 35.1758C261.723 37.1211 261.301 39.875 261.301 43.4375V62H247.52V40.3438C247.52 38.4219 247.344 36.875 246.992 35.7031C246.664 34.5078 246.16 33.6406 245.48 33.1016C244.801 32.5391 243.945 32.2578 242.914 32.2578C241.344 32.2578 240.113 32.7383 239.223 33.6992C238.355 34.6367 237.746 36.0195 237.395 37.8477C237.043 39.6758 236.867 41.9141 236.867 44.5625V62H223.121V22.168H233.492L235.496 27.0898H235.883C236.586 26.0117 237.488 25.0508 238.59 24.207C239.715 23.3633 241.039 22.6953 242.562 22.2031C244.109 21.7109 245.867 21.4648 247.836 21.4648C250.766 21.4648 253.18 21.957 255.078 22.9414C256.977 23.9258 258.523 25.2852 259.719 27.0195H260.141C261.406 25.2383 263.035 23.8672 265.027 22.9062C267.02 21.9453 269.258 21.4648 271.742 21.4648ZM308.867 7.29688V19.6719C308.867 21.0781 308.82 22.4258 308.727 23.7148C308.633 24.9805 308.516 26.1758 308.375 27.3008H308.867C309.898 25.6836 311.246 24.3125 312.91 23.1875C314.574 22.0391 316.754 21.4648 319.449 21.4648C323.598 21.4648 326.984 23.2227 329.609 26.7383C332.258 30.2539 333.582 35.3398 333.582 41.9961C333.582 46.5195 332.973 50.3281 331.754 53.4219C330.535 56.4922 328.824 58.8125 326.621 60.3828C324.441 61.9297 321.91 62.7031 319.027 62.7031C316.215 62.7031 314.07 62.2227 312.594 61.2617C311.141 60.2773 309.898 59.2227 308.867 58.0977H308.023L305.844 62H295.121V7.29688H308.867ZM314.422 32.2578C313.156 32.2578 312.113 32.5508 311.293 33.1367C310.473 33.7227 309.863 34.6367 309.465 35.8789C309.066 37.0977 308.867 38.6562 308.867 40.5547V42.4883C308.867 45.582 309.277 47.8789 310.098 49.3789C310.941 50.8789 312.43 51.6289 314.562 51.6289C316.18 51.6289 317.422 50.7969 318.289 49.1328C319.156 47.4688 319.59 45.043 319.59 41.8555C319.59 38.668 319.168 36.2773 318.324 34.6836C317.48 33.0664 316.18 32.2578 314.422 32.2578ZM380.199 22.168V62H369.828L368.105 57.043H367.297C366.477 58.3789 365.434 59.4688 364.168 60.3125C362.926 61.1328 361.543 61.7305 360.02 62.1055C358.496 62.5039 356.914 62.7031 355.273 62.7031C352.672 62.7031 350.316 62.1992 348.207 61.1914C346.121 60.1836 344.457 58.6016 343.215 56.4453C341.996 54.2891 341.387 51.5117 341.387 48.1133V22.168H355.133V43.9297C355.133 46.5078 355.496 48.4766 356.223 49.8359C356.973 51.1719 358.191 51.8398 359.879 51.8398C361.613 51.8398 362.949 51.3711 363.887 50.4336C364.848 49.4961 365.516 48.1133 365.891 46.2852C366.266 44.457 366.453 42.2305 366.453 39.6055V22.168H380.199ZM390.5 62V10.6016H404.387V50.7852H424.18V62H390.5ZM451.039 21.4648C456.078 21.4648 460.016 22.7188 462.852 25.2266C465.688 27.7109 467.105 31.2617 467.105 35.8789V62H457.578L454.941 56.7266H454.66C453.535 58.1328 452.375 59.2812 451.18 60.1719C450.008 61.0391 448.66 61.6719 447.137 62.0703C445.613 62.4922 443.75 62.7031 441.547 62.7031C439.25 62.7031 437.188 62.2344 435.359 61.2969C433.531 60.3594 432.09 58.9414 431.035 57.043C429.98 55.1445 429.453 52.7422 429.453 49.8359C429.453 45.5703 430.93 42.4062 433.883 40.3438C436.836 38.2812 441.113 37.1211 446.715 36.8633L453.359 36.6523V36.0898C453.359 34.3086 452.914 33.043 452.023 32.293C451.156 31.543 449.984 31.168 448.508 31.168C446.938 31.168 445.18 31.4492 443.234 32.0117C441.312 32.5508 439.379 33.2539 437.434 34.1211L433.461 25.0508C435.758 23.8789 438.359 22.9883 441.266 22.3789C444.172 21.7695 447.43 21.4648 451.039 21.4648ZM453.43 44.2109L450.266 44.3516C447.734 44.4453 445.953 44.8906 444.922 45.6875C443.914 46.4609 443.41 47.5742 443.41 49.0273C443.41 50.3867 443.773 51.3945 444.5 52.0508C445.227 52.6836 446.188 53 447.383 53C449.047 53 450.465 52.4727 451.637 51.418C452.832 50.3633 453.43 48.9922 453.43 47.3047V44.2109ZM490.203 7.29688V19.6719C490.203 21.0781 490.156 22.4258 490.062 23.7148C489.969 24.9805 489.852 26.1758 489.711 27.3008H490.203C491.234 25.6836 492.582 24.3125 494.246 23.1875C495.91 22.0391 498.09 21.4648 500.785 21.4648C504.934 21.4648 508.32 23.2227 510.945 26.7383C513.594 30.2539 514.918 35.3398 514.918 41.9961C514.918 46.5195 514.309 50.3281 513.09 53.4219C511.871 56.4922 510.16 58.8125 507.957 60.3828C505.777 61.9297 503.246 62.7031 500.363 62.7031C497.551 62.7031 495.406 62.2227 493.93 61.2617C492.477 60.2773 491.234 59.2227 490.203 58.0977H489.359L487.18 62H476.457V7.29688H490.203ZM495.758 32.2578C494.492 32.2578 493.449 32.5508 492.629 33.1367C491.809 33.7227 491.199 34.6367 490.801 35.8789C490.402 37.0977 490.203 38.6562 490.203 40.5547V42.4883C490.203 45.582 490.613 47.8789 491.434 49.3789C492.277 50.8789 493.766 51.6289 495.898 51.6289C497.516 51.6289 498.758 50.7969 499.625 49.1328C500.492 47.4688 500.926 45.043 500.926 41.8555C500.926 38.668 500.504 36.2773 499.66 34.6836C498.816 33.0664 497.516 32.2578 495.758 32.2578ZM552.395 49.7656C552.395 52.2969 551.832 54.5352 550.707 56.4805C549.582 58.4258 547.777 59.9492 545.293 61.0508C542.832 62.1523 539.586 62.7031 535.555 62.7031C532.719 62.7031 530.176 62.5508 527.926 62.2461C525.699 61.9414 523.438 61.3555 521.141 60.4883V49.4844C523.648 50.6328 526.203 51.4648 528.805 51.9805C531.406 52.4727 533.457 52.7188 534.957 52.7188C536.504 52.7188 537.629 52.5547 538.332 52.2266C539.059 51.875 539.422 51.3594 539.422 50.6797C539.422 50.0938 539.176 49.6016 538.684 49.2031C538.215 48.7812 537.359 48.3008 536.117 47.7617C534.898 47.2227 533.176 46.4961 530.949 45.582C528.746 44.668 526.906 43.6719 525.43 42.5938C523.977 41.5156 522.887 40.2266 522.16 38.7266C521.434 37.2266 521.07 35.3867 521.07 33.207C521.07 29.3164 522.57 26.3867 525.57 24.418C528.57 22.4492 532.543 21.4648 537.488 21.4648C540.113 21.4648 542.586 21.7578 544.906 22.3438C547.227 22.9062 549.629 23.7383 552.113 24.8398L548.352 33.6992C546.383 32.8086 544.391 32.0938 542.375 31.5547C540.359 31.0156 538.754 30.7461 537.559 30.7461C536.48 30.7461 535.648 30.8867 535.062 31.168C534.477 31.4492 534.184 31.8594 534.184 32.3984C534.184 32.8906 534.383 33.3242 534.781 33.6992C535.203 34.0742 535.988 34.5078 537.137 35C538.285 35.4922 539.961 36.1836 542.164 37.0742C544.484 38.0117 546.395 39.0195 547.895 40.0977C549.418 41.1523 550.543 42.4414 551.27 43.9648C552.02 45.4883 552.395 47.4219 552.395 49.7656ZM558.336 56.1641C558.336 53.6797 559.062 51.9336 560.516 50.9258C561.992 49.918 563.762 49.4141 565.824 49.4141C567.77 49.4141 569.457 49.918 570.887 50.9258C572.316 51.9336 573.031 53.6797 573.031 56.1641C573.031 58.5312 572.316 60.2422 570.887 61.2969C569.457 62.3516 567.77 62.8789 565.824 62.8789C563.762 62.8789 561.992 62.3516 560.516 61.2969C559.062 60.2422 558.336 58.5312 558.336 56.1641ZM600.312 21.4648C605.352 21.4648 609.289 22.7188 612.125 25.2266C614.961 27.7109 616.379 31.2617 616.379 35.8789V62H606.852L604.215 56.7266H603.934C602.809 58.1328 601.648 59.2812 600.453 60.1719C599.281 61.0391 597.934 61.6719 596.41 62.0703C594.887 62.4922 593.023 62.7031 590.82 62.7031C588.523 62.7031 586.461 62.2344 584.633 61.2969C582.805 60.3594 581.363 58.9414 580.309 57.043C579.254 55.1445 578.727 52.7422 578.727 49.8359C578.727 45.5703 580.203 42.4062 583.156 40.3438C586.109 38.2812 590.387 37.1211 595.988 36.8633L602.633 36.6523V36.0898C602.633 34.3086 602.188 33.043 601.297 32.293C600.43 31.543 599.258 31.168 597.781 31.168C596.211 31.168 594.453 31.4492 592.508 32.0117C590.586 32.5508 588.652 33.2539 586.707 34.1211L582.734 25.0508C585.031 23.8789 587.633 22.9883 590.539 22.3789C593.445 21.7695 596.703 21.4648 600.312 21.4648ZM602.703 44.2109L599.539 44.3516C597.008 44.4453 595.227 44.8906 594.195 45.6875C593.188 46.4609 592.684 47.5742 592.684 49.0273C592.684 50.3867 593.047 51.3945 593.773 52.0508C594.5 52.6836 595.461 53 596.656 53C598.32 53 599.738 52.4727 600.91 51.418C602.105 50.3633 602.703 48.9922 602.703 47.3047V44.2109ZM639.547 22.168V62H625.801V22.168H639.547ZM632.727 6.13672C634.695 6.13672 636.406 6.54688 637.859 7.36719C639.336 8.1875 640.074 9.81641 640.074 12.2539C640.074 14.6211 639.336 16.2266 637.859 17.0703C636.406 17.8906 634.695 18.3008 632.727 18.3008C630.711 18.3008 628.988 17.8906 627.559 17.0703C626.152 16.2266 625.449 14.6211 625.449 12.2539C625.449 9.81641 626.152 8.1875 627.559 7.36719C628.988 6.54688 630.711 6.13672 632.727 6.13672Z" fill="black"/>
<path d="M249.601 111.566C247.96 111.566 246.495 111.848 245.206 112.41C243.917 112.961 242.827 113.746 241.937 114.766C241.046 115.785 240.366 117.004 239.898 118.422C239.429 119.828 239.194 121.381 239.194 123.08C239.194 125.424 239.564 127.475 240.302 129.232C241.04 130.979 242.148 132.332 243.624 133.293C245.112 134.254 246.964 134.734 249.179 134.734C250.468 134.734 251.64 134.641 252.694 134.453C253.749 134.254 254.728 134.002 255.63 133.697V135.279C254.775 135.596 253.808 135.854 252.73 136.053C251.663 136.252 250.421 136.352 249.003 136.352C246.437 136.352 244.28 135.801 242.534 134.699C240.8 133.598 239.493 132.051 238.614 130.059C237.735 128.066 237.296 125.74 237.296 123.08C237.296 121.17 237.571 119.418 238.122 117.824C238.673 116.219 239.476 114.83 240.53 113.658C241.597 112.475 242.892 111.561 244.415 110.916C245.939 110.26 247.673 109.932 249.618 109.932C250.849 109.932 252.021 110.055 253.134 110.301C254.259 110.535 255.314 110.881 256.298 111.338L255.595 112.92C254.646 112.451 253.673 112.111 252.677 111.9C251.681 111.678 250.655 111.566 249.601 111.566ZM275.441 116.893V136H273.999L273.735 132.555H273.63C273.302 133.258 272.839 133.896 272.241 134.471C271.644 135.045 270.911 135.502 270.044 135.842C269.177 136.182 268.169 136.352 267.021 136.352C265.556 136.352 264.325 136.1 263.329 135.596C262.345 135.08 261.601 134.307 261.097 133.275C260.593 132.244 260.341 130.955 260.341 129.408V116.893H262.116V129.232C262.116 131.143 262.544 132.549 263.4 133.451C264.267 134.354 265.532 134.805 267.196 134.805C268.603 134.805 269.78 134.535 270.73 133.996C271.691 133.457 272.417 132.643 272.909 131.553C273.413 130.451 273.665 129.08 273.665 127.439V116.893H275.441ZM293.81 130.99C293.81 132.127 293.523 133.1 292.948 133.908C292.386 134.705 291.56 135.314 290.47 135.736C289.38 136.146 288.038 136.352 286.444 136.352C285.12 136.352 283.937 136.234 282.894 136C281.851 135.766 280.978 135.479 280.275 135.139V133.381C281.153 133.814 282.126 134.166 283.192 134.436C284.259 134.705 285.355 134.84 286.48 134.84C288.448 134.84 289.866 134.506 290.733 133.838C291.601 133.17 292.034 132.256 292.034 131.096C292.034 130.334 291.817 129.707 291.384 129.215C290.962 128.711 290.353 128.277 289.556 127.914C288.759 127.551 287.798 127.182 286.673 126.807C285.501 126.408 284.458 126.016 283.544 125.629C282.642 125.23 281.933 124.709 281.417 124.064C280.901 123.408 280.644 122.518 280.644 121.393C280.644 119.857 281.259 118.662 282.489 117.807C283.72 116.951 285.372 116.523 287.446 116.523C288.595 116.523 289.661 116.635 290.646 116.857C291.642 117.068 292.544 117.344 293.353 117.684L292.72 119.195C291.993 118.855 291.155 118.58 290.206 118.369C289.257 118.158 288.308 118.053 287.358 118.053C285.8 118.053 284.581 118.328 283.702 118.879C282.823 119.43 282.384 120.238 282.384 121.305C282.384 122.125 282.595 122.77 283.017 123.238C283.439 123.695 284.042 124.082 284.827 124.398C285.612 124.703 286.544 125.043 287.622 125.418C288.735 125.805 289.761 126.209 290.698 126.631C291.648 127.053 292.403 127.598 292.966 128.266C293.528 128.934 293.81 129.842 293.81 130.99ZM303.794 134.822C304.345 134.822 304.855 134.781 305.323 134.699C305.804 134.617 306.226 134.512 306.589 134.383V135.859C306.214 135.988 305.775 136.1 305.271 136.193C304.767 136.299 304.21 136.352 303.601 136.352C302.523 136.352 301.626 136.152 300.911 135.754C300.196 135.344 299.657 134.729 299.294 133.908C298.931 133.076 298.749 132.021 298.749 130.744V118.369H295.901V117.314L298.732 116.77L299.347 112.27H300.525V116.893H306.483V118.369H300.525V130.639C300.525 132.01 300.776 133.053 301.28 133.768C301.796 134.471 302.634 134.822 303.794 134.822ZM326.54 126.42C326.54 127.896 326.358 129.244 325.995 130.463C325.632 131.67 325.093 132.713 324.378 133.592C323.663 134.471 322.773 135.15 321.706 135.631C320.651 136.111 319.421 136.352 318.015 136.352C316.679 136.352 315.489 136.117 314.446 135.648C313.403 135.168 312.519 134.488 311.792 133.609C311.077 132.73 310.532 131.688 310.157 130.48C309.782 129.262 309.595 127.908 309.595 126.42C309.595 124.369 309.935 122.605 310.614 121.129C311.306 119.641 312.29 118.504 313.567 117.719C314.857 116.922 316.398 116.523 318.191 116.523C320.042 116.523 321.583 116.945 322.814 117.789C324.056 118.621 324.987 119.781 325.608 121.27C326.23 122.758 326.54 124.475 326.54 126.42ZM311.423 126.42C311.423 128.096 311.663 129.561 312.144 130.814C312.624 132.068 313.351 133.047 314.323 133.75C315.308 134.453 316.55 134.805 318.05 134.805C319.585 134.805 320.845 134.453 321.829 133.75C322.814 133.047 323.54 132.062 324.009 130.797C324.478 129.531 324.712 128.072 324.712 126.42C324.712 124.814 324.489 123.385 324.044 122.131C323.599 120.877 322.896 119.893 321.935 119.178C320.974 118.451 319.72 118.088 318.173 118.088C315.958 118.088 314.276 118.826 313.128 120.303C311.991 121.779 311.423 123.818 311.423 126.42ZM351.536 116.523C353.376 116.523 354.829 117.057 355.896 118.123C356.962 119.189 357.495 120.871 357.495 123.168V136H355.755V123.238C355.755 121.469 355.351 120.168 354.542 119.336C353.733 118.504 352.667 118.088 351.343 118.088C349.526 118.088 348.103 118.621 347.071 119.688C346.052 120.742 345.542 122.406 345.542 124.68V136H343.784V123.238C343.784 122.055 343.597 121.088 343.222 120.338C342.858 119.576 342.349 119.014 341.692 118.65C341.036 118.275 340.263 118.088 339.372 118.088C338.189 118.088 337.163 118.334 336.296 118.826C335.429 119.307 334.761 120.057 334.292 121.076C333.823 122.084 333.589 123.367 333.589 124.926V136H331.814V116.893H333.255L333.519 120.021H333.624C333.941 119.4 334.362 118.826 334.89 118.299C335.417 117.771 336.067 117.344 336.841 117.016C337.626 116.688 338.546 116.523 339.601 116.523C340.972 116.523 342.132 116.834 343.081 117.455C344.042 118.064 344.71 118.973 345.085 120.18H345.208C345.724 119.031 346.521 118.135 347.599 117.49C348.689 116.846 350.001 116.523 351.536 116.523ZM389.523 136L386.025 126.912H375.232L371.663 136H369.817L379.925 110.213H381.577L391.421 136H389.523ZM385.444 125.277L381.894 115.645C381.8 115.398 381.683 115.082 381.542 114.695C381.413 114.309 381.273 113.898 381.12 113.465C380.98 113.031 380.839 112.621 380.698 112.234C380.581 112.645 380.452 113.055 380.312 113.465C380.171 113.875 380.036 114.273 379.907 114.66C379.778 115.035 379.655 115.375 379.538 115.68L375.847 125.277H385.444ZM395.06 136V110.301H396.87V136H395.06ZM427.632 129.373C427.632 130.908 427.245 132.197 426.472 133.24C425.698 134.271 424.65 135.051 423.325 135.578C422.001 136.094 420.501 136.352 418.825 136.352C417.782 136.352 416.833 136.299 415.978 136.193C415.134 136.1 414.366 135.971 413.675 135.807C412.995 135.643 412.374 135.455 411.812 135.244V133.434C412.726 133.785 413.78 134.096 414.976 134.365C416.183 134.623 417.495 134.752 418.913 134.752C420.249 134.752 421.433 134.559 422.464 134.172C423.507 133.785 424.327 133.199 424.925 132.414C425.523 131.629 425.821 130.639 425.821 129.443C425.821 128.389 425.569 127.527 425.066 126.859C424.573 126.18 423.829 125.6 422.833 125.119C421.837 124.627 420.583 124.129 419.071 123.625C418.017 123.262 417.056 122.881 416.189 122.482C415.333 122.072 414.601 121.604 413.991 121.076C413.382 120.537 412.913 119.893 412.585 119.143C412.269 118.381 412.11 117.484 412.11 116.453C412.11 115.035 412.468 113.846 413.183 112.885C413.909 111.912 414.888 111.18 416.118 110.688C417.36 110.184 418.755 109.932 420.302 109.932C421.532 109.932 422.698 110.049 423.8 110.283C424.913 110.506 425.985 110.846 427.017 111.303L426.384 112.867C425.353 112.422 424.321 112.094 423.29 111.883C422.259 111.672 421.239 111.566 420.232 111.566C419.025 111.566 417.946 111.748 416.997 112.111C416.06 112.463 415.316 112.996 414.765 113.711C414.214 114.426 413.939 115.328 413.939 116.418C413.939 117.543 414.191 118.451 414.694 119.143C415.21 119.834 415.937 120.408 416.874 120.865C417.823 121.322 418.942 121.768 420.232 122.201C421.755 122.717 423.067 123.262 424.169 123.836C425.271 124.398 426.12 125.113 426.718 125.98C427.327 126.848 427.632 127.979 427.632 129.373ZM448.532 126.42C448.532 127.896 448.351 129.244 447.987 130.463C447.624 131.67 447.085 132.713 446.37 133.592C445.655 134.471 444.765 135.15 443.698 135.631C442.644 136.111 441.413 136.352 440.007 136.352C438.671 136.352 437.482 136.117 436.439 135.648C435.396 135.168 434.511 134.488 433.784 133.609C433.069 132.73 432.525 131.688 432.15 130.48C431.775 129.262 431.587 127.908 431.587 126.42C431.587 124.369 431.927 122.605 432.607 121.129C433.298 119.641 434.282 118.504 435.56 117.719C436.849 116.922 438.39 116.523 440.183 116.523C442.034 116.523 443.575 116.945 444.806 117.789C446.048 118.621 446.98 119.781 447.601 121.27C448.222 122.758 448.532 124.475 448.532 126.42ZM433.415 126.42C433.415 128.096 433.655 129.561 434.136 130.814C434.616 132.068 435.343 133.047 436.316 133.75C437.3 134.453 438.542 134.805 440.042 134.805C441.577 134.805 442.837 134.453 443.821 133.75C444.806 133.047 445.532 132.062 446.001 130.797C446.47 129.531 446.704 128.072 446.704 126.42C446.704 124.814 446.482 123.385 446.036 122.131C445.591 120.877 444.888 119.893 443.927 119.178C442.966 118.451 441.712 118.088 440.165 118.088C437.95 118.088 436.269 118.826 435.12 120.303C433.983 121.779 433.415 123.818 433.415 126.42ZM455.616 136H453.823V108.648H455.616V136ZM476.816 116.893V136H475.374L475.11 132.555H475.005C474.677 133.258 474.214 133.896 473.616 134.471C473.019 135.045 472.286 135.502 471.419 135.842C470.552 136.182 469.544 136.352 468.396 136.352C466.931 136.352 465.7 136.1 464.704 135.596C463.72 135.08 462.976 134.307 462.472 133.275C461.968 132.244 461.716 130.955 461.716 129.408V116.893H463.491V129.232C463.491 131.143 463.919 132.549 464.775 133.451C465.642 134.354 466.907 134.805 468.571 134.805C469.978 134.805 471.155 134.535 472.105 133.996C473.066 133.457 473.792 132.643 474.284 131.553C474.788 130.451 475.04 129.08 475.04 127.439V116.893H476.816ZM488.4 134.822C488.95 134.822 489.46 134.781 489.929 134.699C490.409 134.617 490.831 134.512 491.194 134.383V135.859C490.819 135.988 490.38 136.1 489.876 136.193C489.372 136.299 488.816 136.352 488.206 136.352C487.128 136.352 486.232 136.152 485.517 135.754C484.802 135.344 484.263 134.729 483.9 133.908C483.536 133.076 483.355 132.021 483.355 130.744V118.369H480.507V117.314L483.337 116.77L483.952 112.27H485.13V116.893H491.089V118.369H485.13V130.639C485.13 132.01 485.382 133.053 485.886 133.768C486.401 134.471 487.239 134.822 488.4 134.822ZM497.066 116.893V136H495.29V116.893H497.066ZM496.204 109.826C496.65 109.826 496.978 109.961 497.189 110.23C497.4 110.488 497.505 110.84 497.505 111.285C497.505 111.73 497.4 112.082 497.189 112.34C496.978 112.598 496.65 112.727 496.204 112.727C495.782 112.727 495.466 112.598 495.255 112.34C495.044 112.082 494.939 111.73 494.939 111.285C494.939 110.84 495.044 110.488 495.255 110.23C495.466 109.961 495.782 109.826 496.204 109.826ZM519.302 126.42C519.302 127.896 519.12 129.244 518.757 130.463C518.394 131.67 517.855 132.713 517.14 133.592C516.425 134.471 515.534 135.15 514.468 135.631C513.413 136.111 512.183 136.352 510.776 136.352C509.441 136.352 508.251 136.117 507.208 135.648C506.165 135.168 505.28 134.488 504.554 133.609C503.839 132.73 503.294 131.688 502.919 130.48C502.544 129.262 502.357 127.908 502.357 126.42C502.357 124.369 502.696 122.605 503.376 121.129C504.067 119.641 505.052 118.504 506.329 117.719C507.618 116.922 509.159 116.523 510.952 116.523C512.804 116.523 514.345 116.945 515.575 117.789C516.817 118.621 517.749 119.781 518.37 121.27C518.991 122.758 519.302 124.475 519.302 126.42ZM504.185 126.42C504.185 128.096 504.425 129.561 504.905 130.814C505.386 132.068 506.112 133.047 507.085 133.75C508.069 134.453 509.312 134.805 510.812 134.805C512.347 134.805 513.607 134.453 514.591 133.75C515.575 133.047 516.302 132.062 516.771 130.797C517.239 129.531 517.474 128.072 517.474 126.42C517.474 124.814 517.251 123.385 516.806 122.131C516.36 120.877 515.657 119.893 514.696 119.178C513.735 118.451 512.482 118.088 510.935 118.088C508.72 118.088 507.038 118.826 505.89 120.303C504.753 121.779 504.185 123.818 504.185 126.42ZM532.995 116.523C535.14 116.523 536.786 117.086 537.935 118.211C539.083 119.336 539.657 121.1 539.657 123.502V136H537.9V123.607C537.9 121.709 537.466 120.314 536.599 119.424C535.732 118.533 534.472 118.088 532.819 118.088C530.722 118.088 529.116 118.703 528.003 119.934C526.901 121.152 526.351 122.998 526.351 125.471V136H524.575V116.893H526.017L526.28 120.373H526.386C526.726 119.658 527.189 119.014 527.775 118.439C528.372 117.854 529.105 117.391 529.972 117.051C530.839 116.699 531.847 116.523 532.995 116.523ZM557.798 130.99C557.798 132.127 557.511 133.1 556.937 133.908C556.374 134.705 555.548 135.314 554.458 135.736C553.368 136.146 552.026 136.352 550.433 136.352C549.108 136.352 547.925 136.234 546.882 136C545.839 135.766 544.966 135.479 544.263 135.139V133.381C545.142 133.814 546.114 134.166 547.181 134.436C548.247 134.705 549.343 134.84 550.468 134.84C552.437 134.84 553.855 134.506 554.722 133.838C555.589 133.17 556.023 132.256 556.023 131.096C556.023 130.334 555.806 129.707 555.372 129.215C554.95 128.711 554.341 128.277 553.544 127.914C552.747 127.551 551.786 127.182 550.661 126.807C549.489 126.408 548.446 126.016 547.532 125.629C546.63 125.23 545.921 124.709 545.405 124.064C544.89 123.408 544.632 122.518 544.632 121.393C544.632 119.857 545.247 118.662 546.478 117.807C547.708 116.951 549.36 116.523 551.435 116.523C552.583 116.523 553.65 116.635 554.634 116.857C555.63 117.068 556.532 117.344 557.341 117.684L556.708 119.195C555.982 118.855 555.144 118.58 554.194 118.369C553.245 118.158 552.296 118.053 551.347 118.053C549.788 118.053 548.569 118.328 547.691 118.879C546.812 119.43 546.372 120.238 546.372 121.305C546.372 122.125 546.583 122.77 547.005 123.238C547.427 123.695 548.03 124.082 548.816 124.398C549.601 124.703 550.532 125.043 551.61 125.418C552.724 125.805 553.749 126.209 554.687 126.631C555.636 127.053 556.392 127.598 556.954 128.266C557.517 128.934 557.798 129.842 557.798 130.99Z" fill="black"/>
<mask id="mask0_3243_220" style="mask-type:alpha" maskUnits="userSpaceOnUse" x="0" y="0" width="162" height="138">
<rect width="161.209" height="137.028" fill="#D9D9D9"/>
</mask>
<g mask="url(#mask0_3243_220)">
<path d="M81.7253 4.98291C96.7436 15.6323 107.345 65.3292 81.7253 72.4287C68.4736 72.4287 52.7488 39.0608 81.7253 4.98291Z" fill="black"/>
<path d="M152.467 131.026C135.777 138.767 87.632 123.141 94.3211 97.3032C100.947 85.7748 137.576 88.7787 152.467 131.026Z" fill="#F70A7C"/>
<path d="M7.74508 130.277C9.4168 111.887 46.9603 77.8158 65.8906 96.554C72.5164 108.082 51.6121 138.446 7.74508 130.277Z" fill="#FFC000"/>
</g>
</svg>
