<?xml version="1.0" encoding="utf-8"?>
<!-- Generator: Adobe Illustrator 17.0.0, SVG Export Plug-In . SVG Version: 6.00 Build 0)  -->
<!DOCTYPE svg PUBLIC "-//W3C//DTD SVG 1.1//EN" "http://www.w3.org/Graphics/SVG/1.1/DTD/svg11.dtd">
<svg version="1.1" id="Layer_1" xmlns="http://www.w3.org/2000/svg" xmlns:xlink="http://www.w3.org/1999/xlink" x="0px" y="0px"
	 width="106.5px" height="91.333px" viewBox="0 0 106.5 91.333" enable-background="new 0 0 106.5 91.333" xml:space="preserve">
<g>
	<path fill="#FFFFFF" d="M103.25,89.474c0,0-0.197-18.934-1.354-20.896c-1.721-2.923-5.729-4.932-13.17-8.041
		c-7.416-3.101-9.787-5.716-9.787-11.316c0-3.364,2.264-2.264,3.26-8.419c0.412-2.555,2.412-0.043,2.795-5.872
		c0-2.324-1.092-2.903-1.092-2.903s0.555-3.437,0.771-6.084c0.27-3.298-1.662-11.815-11.955-11.815
		c-10.295,0-12.225,8.518-11.955,11.815c0.217,2.647,0.77,6.084,0.77,6.084s-1.09,0.579-1.09,2.903
		c0.383,5.829,2.381,3.317,2.795,5.872c0.994,6.155,3.26,5.056,3.26,8.419c0,3.807-1.102,6.235-4.137,8.375
		c16.203,8.111,18.375,9.764,18.375,17.015v14.864L103.25,89.474L103.25,89.474z M54.367,63.351
		c-9.891-4.134-13.051-7.621-13.051-15.086c0-4.483,3.02-3.019,4.346-11.227c0.549-3.404,3.217-0.056,3.727-7.829
		c0-3.098-1.455-3.868-1.455-3.868s0.74-4.583,1.029-8.112c0.359-4.396-2.215-15.754-15.941-15.754
		c-13.725,0-16.301,11.357-15.939,15.754c0.289,3.529,1.027,8.112,1.027,8.112s-1.455,0.77-1.455,3.868
		c0.512,7.773,3.178,4.425,3.728,7.829c1.326,8.208,4.346,6.744,4.346,11.227c0,7.465-3.162,10.952-13.051,15.086
		c-3.014,1.26-8.428,3.211-8.428,7.906v18.217h69.469c0,0,0-10.776,0-13.659C72.719,71.532,64.287,67.498,54.367,63.351z"/>
</g>
</svg>
