<?xml version="1.0" encoding="utf-8"?>
<!-- Generator: Adobe Illustrator 17.0.0, SVG Export Plug-In . SVG Version: 6.00 Build 0)  -->
<!DOCTYPE svg PUBLIC "-//W3C//DTD SVG 1.1//EN" "http://www.w3.org/Graphics/SVG/1.1/DTD/svg11.dtd">
<svg version="1.1" id="Layer_1" xmlns="http://www.w3.org/2000/svg" xmlns:xlink="http://www.w3.org/1999/xlink" x="0px" y="0px"
	 width="144.667px" height="48.25px" viewBox="0 0 144.667 48.25" enable-background="new 0 0 144.667 48.25" xml:space="preserve">
<g>
	<path fill="#0E66AD" d="M44.636,41.422c-0.155,0-0.26-0.104-0.26-0.259v-17.1c0-0.155,0.104-0.259,0.26-0.259h7.28
		c4.845,0,6.97,2.565,6.97,6.088c0,3.42-2.202,6.089-6.97,6.089h-1.969c-0.104,0-0.156,0.052-0.156,0.155v5.026
		c0,0.156-0.104,0.259-0.259,0.259H44.636z M53.445,29.892c0-0.984-0.621-1.581-1.813-1.581h-1.684
		c-0.104,0-0.156,0.052-0.156,0.156v2.85c0,0.104,0.052,0.155,0.156,0.155h1.684C52.824,31.472,53.445,30.877,53.445,29.892z"/>
	<path fill="#0E66AD" d="M67.691,41.422c-0.155,0-0.259-0.104-0.259-0.259V33.96c0-0.829-0.337-1.295-1.062-1.295
		c-0.673,0-1.062,0.415-1.062,1.295v7.203c0,0.156-0.104,0.259-0.26,0.259h-4.663c-0.156,0-0.26-0.104-0.26-0.259v-17.1
		c0-0.155,0.104-0.259,0.26-0.259h4.663c0.155,0,0.26,0.104,0.26,0.259v5.855h0.025c0.596-0.881,1.658-1.502,3.213-1.502
		c3.006,0,4.067,1.891,4.067,4.741v8.006c0,0.156-0.104,0.259-0.259,0.259H67.691z"/>
	<path fill="#0E66AD" d="M74.994,27.534c-0.156,0-0.26-0.104-0.26-0.259v-3.213c0-0.155,0.104-0.259,0.26-0.259h4.663
		c0.155,0,0.26,0.104,0.26,0.259v3.213c0,0.155-0.104,0.259-0.26,0.259H74.994z M74.994,41.422c-0.156,0-0.26-0.104-0.26-0.259
		V28.985c0-0.155,0.104-0.259,0.26-0.259h4.663c0.155,0,0.26,0.104,0.26,0.259v12.177c0,0.156-0.104,0.259-0.26,0.259H74.994z"/>
	<path fill="#0E66AD" d="M86.936,41.577c-3.524,0-4.897-1.321-4.897-4.923V24.062c0-0.155,0.104-0.259,0.26-0.259h4.663
		c0.155,0,0.26,0.104,0.26,0.259v11.97c0,0.855,0.362,1.295,1.062,1.295h0.492c0.156,0,0.26,0.104,0.26,0.259v3.731
		c0,0.155-0.104,0.259-0.26,0.259H86.936z"/>
	<path fill="#0E66AD" d="M95.302,41.577c-3.524,0-4.897-1.321-4.897-4.923V24.062c0-0.155,0.104-0.259,0.26-0.259h4.663
		c0.155,0,0.259,0.104,0.259,0.259v11.97c0,0.855,0.363,1.295,1.062,1.295h0.492c0.156,0,0.26,0.104,0.26,0.259v3.731
		c0,0.155-0.104,0.259-0.26,0.259H95.302z"/>
	<path fill="#0E66AD" d="M99.938,46.085c-0.156,0-0.26-0.104-0.26-0.259v-3.627c0-0.155,0.104-0.259,0.26-0.259h0.777
		c0.725,0,1.165-0.181,1.398-0.829l0.233-0.647l-4.871-11.478c-0.052-0.129,0-0.259,0.182-0.259h4.896
		c0.182,0,0.285,0.104,0.337,0.259l1.813,5.208h0.052l1.658-5.208c0.052-0.155,0.156-0.259,0.337-0.259h4.819
		c0.182,0,0.233,0.13,0.182,0.259l-5.934,14.276c-0.933,2.229-2.176,2.824-4.819,2.824H99.938z"/>
	<path fill="#0E66AD" d="M110.039,37.017c0-0.155,0.104-0.259,0.26-0.259h4.146c0.155,0,0.259,0.104,0.259,0.259v4.146
		c0,0.156-0.104,0.259-0.259,0.259h-4.146c-0.155,0-0.26-0.104-0.26-0.259V37.017z"/>
	<path fill="#0E66AD" d="M117.188,41.422c-0.156,0-0.26-0.104-0.26-0.259V28.985c0-0.155,0.104-0.259,0.26-0.259h4.663
		c0.155,0,0.26,0.104,0.26,0.259v1.14h0.025c0.57-1.218,1.84-1.71,3.291-1.71c0.518,0,0.933,0.052,1.191,0.129
		c0.182,0.052,0.207,0.129,0.155,0.337l-1.503,4.793c-0.104,0.13-0.207,0.104-0.362,0.026c-0.674-0.389-1.296-0.57-1.84-0.44
		c-0.674,0.156-0.958,0.7-0.958,1.658v6.244c0,0.156-0.104,0.259-0.26,0.259H117.188z"/>
	<path fill="#0E66AD" d="M132.782,40.23h-0.025v0.933c0,0.156-0.104,0.259-0.26,0.259h-4.663c-0.156,0-0.26-0.104-0.26-0.259v-17.1
		c0-0.155,0.104-0.259,0.26-0.259h4.663c0.155,0,0.26,0.104,0.26,0.259v5.855h0.025c0.544-0.907,1.633-1.502,3.187-1.502
		c2.151,0,3.446,1.088,4.068,3.031c0.337,1.036,0.44,2.15,0.44,3.627c0,1.477-0.104,2.591-0.44,3.627
		c-0.622,1.943-1.917,3.032-4.068,3.032C134.415,41.733,133.326,41.137,132.782,40.23z M135.088,36.862
		c0.104-0.337,0.156-0.726,0.156-1.788c0-1.062-0.052-1.451-0.156-1.788c-0.181-0.544-0.569-0.725-1.088-0.725
		s-0.907,0.181-1.088,0.725c-0.104,0.337-0.155,0.726-0.155,1.788c0,1.062,0.052,1.451,0.155,1.788
		c0.181,0.544,0.569,0.726,1.088,0.726S134.907,37.406,135.088,36.862z"/>
</g>
<g>
	<polygon fill="#634B40" points="30.109,1.611 21.721,1.611 19.977,3.356 7.171,3.356 5.719,4.808 5.719,11.819 4.215,13.363 
		4.215,20.771 8.554,20.771 14.239,13.247 30.109,13.247 	"/>
	<polygon fill="#513C34" points="26.002,13.247 37.879,13.247 43.411,20.771 47.975,20.771 47.975,13.363 46.469,11.857 
		46.469,4.972 44.853,3.356 32.039,3.356 30.295,1.611 26.002,1.611 	"/>
	<defs>
		<filter id="Adobe_OpacityMaskFilter" filterUnits="userSpaceOnUse" x="10.283" y="16.236" width="31.476" height="28.666">
			
				<feColorMatrix  type="matrix" values="-1 0 0 0 1  0 -1 0 0 1  0 0 -1 0 1  0 0 0 1 0" color-interpolation-filters="sRGB" result="source"/>
			<feFlood  style="flood-color:white;flood-opacity:1" result="back"/>
			<feBlend  in="source" in2="back" mode="normal"/>
		</filter>
	</defs>
	<mask maskUnits="userSpaceOnUse" x="10.283" y="16.236" width="31.476" height="28.666" id="SVGID_1_">
		<g filter="url(#Adobe_OpacityMaskFilter)">
			<g>
				<polygon fill="#FFFFFF" points="23.399,41.422 21.874,40.49 23.953,36.45 22.528,34.154 23.613,31.862 23.887,28.64 
					24.713,31.875 23.665,34.089 25.407,36.41 				"/>
			</g>
		</g>
	</mask>
	<g mask="url(#SVGID_1_)">
		<polygon fill="#EF4334" points="15.541,16.236 10.283,23.267 26.072,44.902 41.737,23.267 36.568,16.236 		"/>
		<g>
			<polygon opacity="0.6" fill="#C43830" points="20.71,23.267 15.541,16.236 10.283,23.267 			"/>
			<polygon opacity="0.6" fill="#C43830" points="31.413,23.267 26.02,16.236 20.71,23.267 			"/>
			<polygon opacity="0.6" fill="#C43830" points="36.568,16.236 31.413,23.267 41.737,23.267 			"/>
		</g>
		<polygon fill="#B72F2A" points="10.29,23.232 26.072,44.902 20.729,23.232 		"/>
		<polygon fill="#B72F2A" points="26.072,44.902 41.758,23.267 31.413,23.267 		"/>
	</g>
</g>
</svg>
