<?xml version="1.0" encoding="utf-8"?>
<!-- Generator: Adobe Illustrator 17.0.0, SVG Export Plug-In . SVG Version: 6.00 Build 0)  -->
<!DOCTYPE svg PUBLIC "-//W3C//DTD SVG 1.1//EN" "http://www.w3.org/Graphics/SVG/1.1/DTD/svg11.dtd">
<svg version="1.1" id="Layer_1" xmlns="http://www.w3.org/2000/svg" xmlns:xlink="http://www.w3.org/1999/xlink" x="0px" y="0px"
	 width="47.458px" height="45.625px" viewBox="0 0 47.458 45.625" enable-background="new 0 0 47.458 45.625" xml:space="preserve">
<g>
	<polygon fill="#FFFFFF" points="29.458,2.915 27.832,1.17 19.518,1.17 17.774,2.915 4.968,2.915 3.516,4.367 3.516,11.379 
		2.012,12.922 2.012,20.33 6.351,20.33 12.035,12.806 27.905,12.806 	"/>
	<polygon fill="#FFFFFF" points="23.799,12.806 35.676,12.806 41.208,20.33 45.772,20.33 45.772,12.922 44.266,11.416 44.266,4.531 
		42.65,2.915 29.836,2.915 28.092,1.17 23.799,1.17 	"/>
	<polygon fill="#FFFFFF" points="34.365,15.796 13.338,15.796 8.08,22.792 20.078,39.259 21.75,36.009 20.325,33.713 21.41,31.421 
		21.684,28.199 22.51,31.434 21.462,33.649 23.204,35.969 21.245,40.86 23.869,44.461 39.534,22.826 	"/>
</g>
</svg>
