<?xml version="1.0" encoding="utf-8"?>
<!-- Generator: Adobe Illustrator 17.0.0, SVG Export Plug-In . SVG Version: 6.00 Build 0)  -->
<!DOCTYPE svg PUBLIC "-//W3C//DTD SVG 1.1//EN" "http://www.w3.org/Graphics/SVG/1.1/DTD/svg11.dtd">
<svg version="1.1" xmlns="http://www.w3.org/2000/svg" xmlns:xlink="http://www.w3.org/1999/xlink" x="0px" y="0px"
	 width="568.667px" height="170.667px" viewBox="0 0 568.667 170.667" enable-background="new 0 0 568.667 170.667"
	 xml:space="preserve">
<g id="Layer_1">
	<g>
		<path fill="#B32317" d="M192.836,111.243V74.406h-6.703l1.58-9.319l5.123,0.273V48.631h10.789V65.36h8.065v9.046h-8.065v35.804
			c0,3.34,1.6,5.011,4.796,5.011c0.689,0,1.763-0.18,3.216-0.544l0.053,9.482c-1.926,0.617-4.015,0.926-6.266,0.926
			C197.031,125.084,192.836,120.472,192.836,111.243"/>
		<path fill="#B32317" d="M219.537,123.503V44.706h10.954v27.029c4.102-4.795,8.228-7.192,12.37-7.192
			c5.085,0,7.628,3.419,7.628,10.254v48.706h-10.844V79.638c0-3.053-0.962-4.578-2.887-4.578c-1.854,0-3.944,1.454-6.267,4.358
			v44.085H219.537z"/>
		<path fill="#B32317" d="M259.645,78.655c0-4.685,1.526-8.354,4.578-11.006c2.906-2.506,6.739-3.761,11.498-3.761
			c4.468,0,8.126,1.399,10.981,4.195c2.852,2.799,4.277,6.431,4.277,10.9v30.026c0,4.977-1.391,8.883-4.17,11.716
			c-2.779,2.834-6.638,4.251-11.579,4.251c-4.832,0-8.646-1.508-11.443-4.524c-2.762-2.906-4.142-6.791-4.142-11.66V78.655z
			 M270.816,109.881c0,3.343,1.471,5.013,4.413,5.013c3.161,0,4.742-1.67,4.742-5.013V78.219c0-2.833-1.581-4.249-4.742-4.249
			c-2.942,0-4.413,1.416-4.413,4.249V109.881z"/>
		<path fill="#B32317" d="M330.978,65.36v58.144h-10.792v-6.375c-4.105,4.868-8.283,7.302-12.533,7.302
			c-5.051,0-7.575-3.454-7.575-10.363V65.36h10.845v44.63c0,2.616,0.962,3.923,2.888,3.923c1.925,0,4.051-1.452,6.376-4.358V65.36
			H330.978z"/>
		<path fill="#B32317" d="M346.725,106.447c-4.724-2.941-7.085-7.521-7.085-13.731V81.108c0-5.158,1.16-9.244,3.482-12.26
			c2.573-3.305,6.363-4.959,11.369-4.959c4.822,0,9.012,2.163,12.564,6.484c1.306,2.398,1.957,4.071,1.957,5.014v0.6v3.868v12.97
			c0,10.499-4.65,15.712-13.949,15.64c-0.255,0-1.127-0.072-2.615-0.219c-0.108,0-0.2-0.018-0.273-0.054
			c-1.707,1.271-2.56,2.508-2.56,3.707c0,1.67,2.124,2.631,6.375,2.887c2.65,0.145,4.686,0.327,6.104,0.544
			c9.153,1.346,13.731,5.704,13.731,13.079c0,9.154-6.993,13.732-20.978,13.732c-12.137,0-18.202-3.089-18.202-9.264
			c0-1.926,0.817-3.706,2.453-5.341c1.379-1.381,3.794-2.761,7.245-4.141c-4.467-1.127-6.702-3.361-6.702-6.703
			C339.64,113.313,342.001,109.899,346.725,106.447 M352.719,124.867c-2.762,1.272-4.141,2.797-4.141,4.578
			c0,1.525,0.982,2.724,2.94,3.596c1.526,0.654,3.163,0.98,4.906,0.98c2.144,0,4.086-0.289,5.831-0.871
			c2.507-0.872,3.76-2.161,3.76-3.868C366.016,126.41,361.584,124.939,352.719,124.867 M359.096,93.368V79.854
			c0-3.924-1.601-5.884-4.797-5.884c-3.124,0-4.685,1.96-4.685,5.884v13.513c0,3.963,1.561,5.94,4.685,5.94
			C357.495,99.308,359.096,97.33,359.096,93.368"/>
		<path fill="#B32317" d="M380.073,123.503V44.706h10.954v27.029c4.105-4.795,8.229-7.192,12.371-7.192
			c5.086,0,7.627,3.419,7.627,10.254v48.706h-10.842V79.638c0-3.053-0.964-4.578-2.889-4.578c-1.854,0-3.943,1.454-6.268,4.358
			v44.085H380.073z"/>
		<path fill="#B32317" d="M424.27,111.243V74.406h-6.703l1.582-9.319l5.121,0.273V48.631h10.79V65.36h8.064v9.046h-8.064v35.804
			c0,3.34,1.599,5.011,4.794,5.011c0.691,0,1.761-0.18,3.216-0.544l0.055,9.482c-1.928,0.617-4.016,0.926-6.268,0.926
			C428.465,125.084,424.27,120.472,424.27,111.243"/>
		<path fill="#231F20" d="M450.971,123.503V44.707h10.954v25.34c2.979-3.669,6.175-5.503,9.591-5.503
			c7.011,0,10.516,4.871,10.516,14.616v32.288c0,8.547-3.288,12.82-9.864,12.82c-4.067,0-7.483-1.746-10.242-5.232v4.467H450.971z
			 M461.925,112.441c1.635,1.781,3.341,2.672,5.122,2.672c2.543,0,3.814-1.743,3.814-5.231V79.855c0-3.997-1.489-5.994-4.468-5.994
			c-1.562,0-3.052,0.783-4.468,2.343V112.441z"/>
		<path fill="#231F20" d="M490.261,78.655c0-4.685,1.525-8.354,4.576-11.006c2.907-2.506,6.738-3.761,11.5-3.761
			c4.467,0,8.128,1.399,10.98,4.195c2.852,2.799,4.275,6.431,4.275,10.9v30.026c0,4.977-1.389,8.883-4.167,11.716
			c-2.78,2.834-6.64,4.251-11.579,4.251c-4.833,0-8.647-1.508-11.443-4.524c-2.762-2.906-4.142-6.791-4.142-11.66V78.655z
			 M501.433,109.881c0,3.343,1.47,5.013,4.413,5.013c3.161,0,4.741-1.67,4.741-5.013V78.219c0-2.833-1.58-4.249-4.741-4.249
			c-2.943,0-4.413,1.416-4.413,4.249V109.881z"/>
		<path fill="#231F20" d="M533.964,111.243V74.406h-6.702l1.581-9.319l5.121,0.273V48.631h10.79V65.36h8.064v9.046h-8.064v35.804
			c0,3.34,1.598,5.011,4.795,5.011c0.691,0,1.762-0.18,3.216-0.544l0.054,9.482c-1.926,0.617-4.015,0.926-6.267,0.926
			C538.159,125.084,533.964,120.472,533.964,111.243"/>
	</g>
</g>
<g id="Layer_2">
	<g>
		<path fill="#B32317" d="M85.569,14.473c-39.734,0-71.947,32.21-71.947,71.949c0,39.732,32.212,71.951,71.947,71.951
			c39.734,0,71.947-32.219,71.947-71.951C157.516,46.683,125.303,14.473,85.569,14.473z"/>
		<g>
			<path fill="#FFFFFF" d="M66.881,90.037h-2.897v20.43h-0.015c0.976,1.147,1.568,2.63,1.568,4.25c0,2.018-0.913,3.826-2.348,5.032
				l-1.788-1.784c0.985-0.74,1.622-1.919,1.622-3.248c0-2.241-1.818-4.059-4.059-4.059c-2.242,0-4.059,1.817-4.059,4.059
				c0,1.317,0.627,2.489,1.6,3.23l-1.787,1.784c-1.422-1.208-2.327-3.006-2.327-5.015c0-1.622,0.594-3.105,1.571-4.252V78.613
				c0.064-1.226,1.051-2.21,2.273-2.21l58.395,0.007c1.221,0,2.209,0.983,2.273,2.21v31.85c0.978,1.147,1.57,2.632,1.57,4.255
				c0,2.007-0.904,3.806-2.327,5.014l-1.786-1.785c0.972-0.741,1.6-1.913,1.6-3.228c0-2.242-1.817-4.061-4.059-4.061
				s-4.06,1.818-4.06,4.061c0,1.326,0.638,2.505,1.622,3.246l-1.788,1.786c-1.435-1.208-2.349-3.016-2.349-5.032
				c0-1.621,0.593-3.103,1.569-4.252h-0.014V90.045h-2.897v43.121l1.94,1.107v3.505H86.386v-3.505l1.945-1.107h0.002v-13.081h-5.805
				v13.081l1.941,1.107v3.505l-19.5,0.032v-3.537l1.908-1.107L66.881,90.037z"/>
			<path fill="#FFFFFF" d="M85.437,43.321c4.055,0,7.727,1.445,9.991,3.619l1.79-2.55c-2.827-2.533-7.056-4.141-11.781-4.141l0,0
				c-4.737,0-8.976,1.616-11.802,4.161l1.788,2.553C77.686,44.775,81.37,43.321,85.437,43.321"/>
			<g opacity="0.6">
				<path fill="#FFFFFF" d="M85.63,36.806c4.43,0,8.562,1.28,11.635,3.604c0.624,0.473,1.186,0.976,1.683,1.503l1.793-2.559
					c-3.488-3.419-8.959-5.621-15.111-5.621l0,0c-6.3,0-11.886,2.31-15.359,5.869l1.801,2.572c0.553-0.624,1.195-1.215,1.922-1.765
					C77.067,38.086,81.2,36.806,85.63,36.806"/>
			</g>
			<g opacity="0.3">
				<path fill="#FFFFFF" d="M85.437,30.556c7.032,0,13.248,2.562,16.941,6.458l1.779-2.536c-4.308-4.251-11.09-6.994-18.721-6.994
					l0,0c-7.642,0-14.435,2.75-18.741,7.014l1.777,2.539C72.165,33.128,78.391,30.556,85.437,30.556"/>
			</g>
			<g>
				<path fill="#FFFFFF" d="M79.517,60.673c0,1.066-0.866,1.935-1.938,1.935c-1.065,0-1.933-0.869-1.933-1.935
					c0-1.076,0.868-1.939,1.933-1.939C78.651,58.733,79.517,59.597,79.517,60.673z"/>
				<path fill="#FFFFFF" d="M100.012,50.24H70.289c-1.218,0-2.215,0.989-2.215,2.213v19.391c0,1.215,0.997,2.211,2.215,2.211h29.723
					c1.223,0,2.215-0.996,2.215-2.211V52.453C102.227,51.229,101.235,50.24,100.012,50.24z M77.578,64.455
					c-2.087,0-3.781-1.699-3.781-3.783c0-2.093,1.694-3.788,3.781-3.788c2.089,0,3.784,1.694,3.784,3.788
					C81.362,62.756,79.668,64.455,77.578,64.455z M92.771,64.455c-2.095,0-3.792-1.699-3.792-3.783c0-2.093,1.697-3.788,3.792-3.788
					c2.09,0,3.784,1.694,3.784,3.788C96.555,62.756,94.861,64.455,92.771,64.455z"/>
				<path fill="#FFFFFF" d="M94.714,60.673c0,1.066-0.878,1.935-1.943,1.935c-1.07,0-1.936-0.869-1.936-1.935
					c0-1.076,0.866-1.939,1.936-1.939C93.836,58.733,94.714,59.597,94.714,60.673z"/>
			</g>
		</g>
	</g>
</g>
</svg>
